HIERARCHY
ROOT Hips
{
	OFFSET	0.00	0.00	0.00
	CHANNELS 6 Xposition Yposition Zposition Zrotation Xrotation Yrotation
	JOINT LeftUpLeg
	{
		OFFSET	 0.126116	-0.014019	-0.065224
		CHANNELS 3 Zrotation Xrotation Yrotation
		JOINT LeftLeg
		{
			OFFSET	 0.000000	 0.000000	 0.569914
			CHANNELS 3 Zrotation Xrotation Yrotation
			JOINT LeftFoot
			{
				OFFSET	 0.000000	 0.000000	 0.544423
				CHANNELS 3 Zrotation Xrotation Yrotation
				JOINT LeftToeBase
				{
					OFFSET	 0.000000	 0.000000	 0.207117
					CHANNELS 3 Zrotation Xrotation Yrotation
					End Site
					{
						OFFSET	 0.000000	 0.000000	 0.207117
					}
				}
			}
		}
	}
	JOINT RightUpLeg
	{
		OFFSET	-0.124023	-0.008373	-0.065224
		CHANNELS 3 Zrotation Xrotation Yrotation
		JOINT RightLeg
		{
			OFFSET	 0.000000	 0.000000	 0.570047
			CHANNELS 3 Zrotation Xrotation Yrotation
			JOINT RightFoot
			{
				OFFSET	 0.000000	 0.000000	 0.544354
				CHANNELS 3 Zrotation Xrotation Yrotation
				JOINT RightToeBase
				{
					OFFSET	 0.000000	 0.000000	 0.207540
					CHANNELS 3 Zrotation Xrotation Yrotation
					End Site
					{
						OFFSET	 0.000000	 0.000000	 0.207540
					}
				}
			}
		}
	}
	JOINT Spine
	{
		OFFSET	 0.000184	-0.007763	 0.117403
		CHANNELS 3 Zrotation Xrotation Yrotation
		JOINT Spine1
		{
			OFFSET	 0.000000	 0.000000	 0.137269
			CHANNELS 3 Zrotation Xrotation Yrotation
			JOINT Spine2
			{
				OFFSET	 0.000000	 0.000000	 0.156879
				CHANNELS 3 Zrotation Xrotation Yrotation
				JOINT LeftShoulder
				{
					OFFSET	 0.080501	-0.002496	 0.160144
					CHANNELS 3 Zrotation Xrotation Yrotation
					JOINT LeftArm
					{
						OFFSET	 0.000000	 0.000000	 0.164363
						CHANNELS 3 Zrotation Xrotation Yrotation
						JOINT LeftForeArm
						{
							OFFSET	 0.000000	 0.000000	 0.364576
							CHANNELS 3 Zrotation Xrotation Yrotation
							JOINT LeftHand
							{
								OFFSET	 0.000000	 0.000000	 0.360812
								CHANNELS 3 Zrotation Xrotation Yrotation
								JOINT LeftHandIndex1
								{
									OFFSET	 0.000000	 0.000000	 0.086006
									CHANNELS 3 Zrotation Xrotation Yrotation
									JOINT LeftHandIndex2
									{
										OFFSET	 0.000000	 0.000000	 0.047236
										CHANNELS 3 Zrotation Xrotation Yrotation
										JOINT LeftHandIndex3
										{
											OFFSET	-0.004284	-0.000551	 0.038166
											CHANNELS 3 Zrotation Xrotation Yrotation
											End Site
											{
												OFFSET	-0.004284	-0.000551	 0.038166
											}
										}
									}
								}
							}
						}
					}
				}
				JOINT Neck
				{
					OFFSET	 0.000000	 0.000000	 0.176489
					CHANNELS 3 Zrotation Xrotation Yrotation
					JOINT Head
					{
						OFFSET	 0.000000	-0.001747	 0.077940
						CHANNELS 3 Zrotation Xrotation Yrotation
						End Site
						{
							OFFSET	 0.000000	-0.001747	 0.077940
						}
					}
				}
				JOINT RightShoulder
				{
					OFFSET	-0.080363	 0.000306	 0.159706
					CHANNELS 3 Zrotation Xrotation Yrotation
					JOINT RightArm
					{
						OFFSET	 0.000000	 0.000000	 0.164196
						CHANNELS 3 Zrotation Xrotation Yrotation
						JOINT RightForeArm
						{
							OFFSET	 0.000000	 0.000000	 0.365611
							CHANNELS 3 Zrotation Xrotation Yrotation
							JOINT RightHand
							{
								OFFSET	 0.000000	 0.000000	 0.360648
								CHANNELS 3 Zrotation Xrotation Yrotation
								JOINT RightHandIndex1
								{
									OFFSET	 0.000000	 0.000000	 0.069977
									CHANNELS 3 Zrotation Xrotation Yrotation
									JOINT RightHandIndex2
									{
										OFFSET	 0.000000	 0.000000	 0.052305
										CHANNELS 3 Zrotation Xrotation Yrotation
										JOINT RightHandIndex3
										{
											OFFSET	 0.009002	-0.000782	 0.042196
											CHANNELS 3 Zrotation Xrotation Yrotation
											End Site
											{
												OFFSET	 0.009002	-0.000782	 0.042196
											}
										}
									}
								}
							}
						}
					}
				}
			}
		}
	}
}
MOTION
Frames:    9
Frame Time: 0.03333334
 0.000168	 0.043407	 1.277341	-0.066228	 2.835691	 0.605549	-5.393477	-5.487202	 178.954700	 2.197477	-12.190980	 0.552372	 0.073085	 70.813210	-0.191995	-2.385833	 28.452750	 0.000004	 12.880020	-4.700493	-179.216700	-0.803485	-9.912052	 0.748944	 4.972168	 69.415380	 1.363437	 2.384659	 28.388700	-0.000001	-0.487460	 7.381911	 0.338676	-0.177474	-6.798804	-0.012311	 0.965549	 10.192510	 0.174432	-91.080370	 69.185360	-177.624700	-7.052656	 0.395962	-7.388650	 24.545920	-6.494971	-24.345850	-8.343759	-21.422410	-4.469402	-2.027600	 6.559038	 9.033609	-5.188889	 0.308190	 3.541030	-5.234859	 0.342567	 0.430617	 4.557734	 19.361140	-7.186529	-4.121047	-14.053580	 1.926246	 88.893150	 67.854770	 177.123300	 9.880201	 6.373308	 7.172689	-26.463180	-8.892097	 24.406530	 5.685710	-21.187400	 6.160692	 1.803333	 3.979147	-15.098590	 4.898592	 3.004813	-9.310344	 5.224449	 0.395017	 2.014677
-0.000131	 0.045239	 1.278318	-0.021281	 3.468858	 0.641680	-5.529426	-5.868922	 178.822100	 2.145195	-11.400760	 0.506705	-0.148936	 70.304990	 0.098819	-2.385833	 28.452750	 0.000004	 12.865090	-4.833293	-179.043200	-0.808982	-8.632350	 0.652219	 4.881683	 68.645250	 1.442247	 2.384659	 28.388700	-0.000001	-0.480253	 7.823972	 0.380932	-0.208530	-8.677141	-0.119485	 0.981638	 12.277270	 0.206926	-90.968310	 68.423900	-177.390900	-6.575060	-0.275772	-8.085723	 24.097300	-6.507607	-25.123360	-7.233329	-22.455810	-4.836751	-2.027600	 6.559038	 9.033609	-5.188889	 0.308190	 3.541030	-5.234859	 0.342567	 0.430617	 4.702165	 21.510250	-7.842851	-3.918084	-15.588240	 1.890064	 88.711730	 66.605700	 176.798400	 9.616045	 5.483767	 8.195290	-26.414980	-9.036349	 24.812610	 4.252006	-21.712390	 5.796013	 1.803333	 3.979147	-15.098590	 4.898592	 3.004813	-9.310344	 5.224449	 0.395017	 2.014677
-0.000663	 0.048518	 1.279377	 0.065318	 4.493075	 0.707627	-5.778152	-6.688736	 178.581100	 2.135765	-10.503220	 0.468396	-0.596370	 69.722210	 0.571702	-2.385833	 28.452750	 0.000004	 12.810860	-5.163632	-178.779900	-0.825889	-6.764744	 0.509867	 4.807781	 67.472110	 1.508714	 2.384659	 28.388700	-0.000001	-0.387871	 8.372509	 0.429390	-0.243077	-11.218400	-0.275089	 0.898052	 15.015560	 0.278552	-90.834470	 67.503460	-177.136600	-5.991232	-0.610933	-8.898495	 23.386760	-6.544103	-26.498420	-5.943819	-24.092030	-5.536899	-2.027600	 6.559038	 9.033609	-5.188889	 0.308190	 3.541030	-5.234859	 0.342567	 0.430617	 4.760478	 24.325590	-8.652961	-3.567233	-17.722460	 1.871189	 88.453090	 64.827040	 176.383200	 9.207073	 4.672731	 9.498717	-26.205620	-9.218879	 25.515600	 2.302968	-22.567220	 5.386727	 1.803333	 3.979147	-15.098590	 4.898592	 3.004813	-9.310344	 5.224449	 0.395017	 2.014677
-0.001312	 0.053670	 1.280821	 0.190319	 6.029581	 0.837203	-6.085451	-7.895071	 178.181400	 2.114414	-9.089121	 0.400068	-1.225220	 68.822880	 1.287000	-2.385832	 28.452790	-0.000001	 12.554010	-4.428156	-178.308100	-1.244556	-1.394319	 0.095089	 4.698716	 64.495640	 2.038523	 2.384659	 28.388700	-0.000001	-0.200828	 8.769269	 0.401875	-0.296903	-14.381840	-0.371971	 0.623251	 17.900880	 0.311562	-90.834950	 66.015190	-177.370300	-4.903892	-0.857110	-9.074125	 21.453470	-5.991223	-28.360850	-5.825656	-25.834320	-6.906629	-2.027600	 6.559038	 9.033609	-5.188889	 0.308190	 3.541030	-5.234859	 0.342567	 0.430617	 4.391617	 26.046770	-8.809801	-3.311785	-19.173030	 1.642464	 88.392360	 62.581610	 176.569300	 7.808675	 3.787920	 10.174030	-25.271240	-9.093622	 26.456500	 0.388708	-23.351220	 5.566426	 1.803333	 3.979147	-15.098590	 4.898592	 3.004813	-9.310344	 5.224449	 0.395017	 2.014677
-0.001648	 0.060584	 1.281227	 0.446224	 7.921801	 0.920120	-6.577959	-10.012070	 177.740700	 2.025867	-8.548072	 0.363252	-1.825253	 68.069910	 2.047806	-2.385833	 28.452760	 0.000004	 12.249070	-6.314267	-177.892400	-1.511970	-0.510166	 0.032405	 5.442841	 63.705340	 1.499764	 2.384659	 28.388700	-0.000001	-0.065321	 8.695427	 0.321351	-0.340668	-17.679480	-0.385971	 0.277451	 20.414380	 0.417770	-91.269560	 65.095150	-178.647800	-3.525095	 0.295364	-7.623377	 19.942990	-5.609804	-30.472020	-6.009342	-27.076440	-8.364627	-2.027600	 6.559038	 9.033609	-5.188889	 0.308190	 3.541030	-5.234859	 0.342567	 0.430617	 3.913770	 26.813820	-8.778212	-3.110534	-20.075340	 1.456469	 88.779330	 61.290870	 177.639800	 5.617952	 4.529498	 9.250645	-24.473260	-9.036648	 27.452600	-1.391250	-24.125140	 5.797223	 1.803333	 3.979147	-15.098590	 4.898592	 3.004813	-9.310344	 5.224449	 0.395017	 2.014677
-0.001846	 0.069032	 1.280657	 0.716932	 10.061350	 0.934638	-7.099593	-12.933920	 177.289500	 1.971713	-8.940408	 0.371361	-2.477344	 67.693440	 2.865736	-2.385833	 28.452760	 0.000004	 12.007860	-8.957197	-177.376500	-1.713148	-0.513407	 0.030804	 6.393991	 63.326090	 0.670740	 2.384659	 28.388700	-0.000001	 0.041532	 8.210951	 0.267341	-0.328088	-20.406210	-0.376984	-0.078324	 22.272790	 0.679000	-91.988530	 64.876380	 179.439000	-2.150353	 2.736349	-5.356544	 19.248740	-5.627061	-32.534050	-5.954928	-28.002880	-9.444118	-2.027600	 6.559038	 9.033609	-5.188889	 0.308190	 3.541030	-5.234859	 0.342567	 0.430617	 3.440114	 26.385180	-8.832892	-2.958230	-20.285150	 1.266985	 89.462840	 60.633390	 179.265300	 3.073626	 6.529977	 7.606953	-23.610660	-8.874176	 28.344040	-2.668298	-25.014160	 6.015881	 1.803333	 3.979147	-15.098590	 4.898592	 3.004813	-9.310344	 5.224449	 0.395017	 2.014677
-0.002061	 0.077711	 1.279671	 0.920824	 12.111570	 0.893280	-7.567933	-16.145870	 176.875200	 2.004945	-10.090240	 0.424485	-3.240046	 67.786100	 3.705111	-2.385832	 28.452790	-0.000001	 11.858670	-11.532390	-176.819500	-1.892838	-0.513936	 0.029215	 7.267067	 62.950400	-0.113338	 2.384659	 28.388700	-0.000001	 0.153589	 7.694352	 0.272593	-0.221261	-22.093960	-0.366425	-0.412855	 23.356820	 1.032362	-92.693900	 65.146100	 177.544800	-1.112787	 5.454883	-3.082345	 19.198600	-6.098258	-34.805930	-5.523067	-28.723900	-9.949643	-2.027600	 6.559038	 9.033609	-5.188889	 0.308190	 3.541030	-5.234859	 0.342567	 0.430617	 3.065067	 25.122810	-9.046810	-2.859369	-19.953340	 1.058336	 90.173090	 60.242800	-179.111500	 0.861130	 8.677056	 5.979386	-22.574290	-8.712532	 29.613210	-3.282046	-25.912350	 6.195457	 1.803333	 3.979147	-15.098590	 4.898592	 3.004813	-9.310344	 5.224449	 0.395017	 2.014677
-0.003412	 0.092574	 1.278819	 2.041543	 16.037250	 0.956981	-9.230013	-21.575750	 175.600900	 2.677095	-10.943720	 0.587865	-5.189639	 67.060190	 5.209931	-2.385833	 28.452760	 0.000004	 10.758180	-16.390870	-176.259500	-1.498972	-0.513251	 0.032712	 7.427969	 61.657810	-0.772463	 2.384659	 28.388700	-0.000001	-0.001294	 6.335557	 0.186231	-0.757126	-23.426190	-0.517995	-0.793932	 23.247800	 0.976193	-93.439410	 65.293160	 175.520400	 1.264264	 9.327737	-1.176190	 19.036630	-6.604434	-37.493830	-4.867079	-28.985170	-10.319090	-2.027600	 6.559038	 9.033609	-5.188889	 0.308190	 3.541030	-5.234859	 0.342567	 0.430617	 2.719330	 24.486290	-8.548118	-2.868068	-20.191700	 0.737211	 91.034520	 60.538420	-177.126900	-2.342849	 12.216650	 4.808355	-21.518340	-8.441972	 30.739940	-3.768330	-26.521910	 6.678229	 1.803333	 3.979147	-15.098590	 4.898592	 3.004813	-9.310344	 5.224449	 0.395017	 2.014677
-0.005145	 0.108807	 1.277304	 3.332025	 19.807330	 0.773693	-11.121910	-26.510320	 174.272400	 3.304385	-11.009740	 0.711568	-6.978783	 65.190960	 6.655565	-2.385833	 28.452760	 0.000004	 9.607939	-21.670900	-175.706000	-1.796160	-1.645154	 0.096289	 8.336468	 60.350040	-1.542599	 2.384659	 28.388700	-0.000001	-0.169489	 5.749803	 0.150709	-1.210475	-23.793110	-0.394679	-1.268294	 22.741660	 0.658501	-94.039570	 65.770010	 173.760200	 3.974179	 13.879600	-1.764093	 19.052140	-6.944145	-38.831980	-4.432901	-29.541720	-10.698250	-2.027600	 6.559038	 9.033609	-5.188889	 0.308190	 3.541030	-5.234859	 0.342567	 0.430617	 2.386567	 23.978380	-7.518092	-3.041570	-20.591320	 0.094006	 91.818460	 61.166150	-175.229800	-5.439014	 16.442750	 5.746398	-21.031090	-8.217185	 31.001240	-4.099566	-27.010960	 7.119926	 1.803333	 3.979147	-15.098590	 4.898592	 3.004813	-9.310344	 5.224449	 0.395017	 2.014677
